<?xml version="1.0" standalone="no"?>
<!DOCTYPE svg PUBLIC "-//W3C//DTD SVG 20010904//EN"
 "http://www.w3.org/TR/2001/REC-SVG-20010904/DTD/svg10.dtd">
<svg version="1.0" xmlns="http://www.w3.org/2000/svg"
 width="512.000000pt" height="512.000000pt" viewBox="0 0 512.000000 512.000000"
 preserveAspectRatio="xMidYMid meet">

<g transform="translate(0.000000,512.000000) scale(0.100000,-0.100000)"
fill="#000000" stroke="none">
<path d="M2748 5103 c6 -2 18 -2 25 0 6 3 1 5 -13 5 -14 0 -19 -2 -12 -5z"/>
<path d="M2815 5094 c11 -3 58 -14 105 -26 455 -110 873 -472 1110 -963 189
-389 269 -870 211 -1270 -42 -287 -105 -503 -216 -732 -58 -121 -323 -527
-800 -1228 -239 -351 -516 -767 -508 -762 16 10 1422 1760 1489 1853 73 102
178 300 229 433 47 121 90 290 110 432 21 151 21 420 0 564 -86 577 -400 1069
-893 1398 -177 118 -441 229 -657 276 -79 17 -233 38 -180 25z"/>
<path d="M1945 3941 c-51 -22 -65 -86 -26 -124 21 -21 29 -22 205 -22 167 0
186 2 205 19 29 26 29 86 0 112 -19 17 -40 19 -193 21 -94 1 -180 -1 -191 -6z"/>
<path d="M2654 3936 c-45 -20 -59 -72 -30 -112 13 -17 31 -20 153 -24 l138 -5
3 -104 3 -104 -178 -308 c-98 -170 -180 -308 -183 -309 -3 0 -31 46 -64 103
-251 436 -320 546 -348 556 -53 19 -70 2 -163 -158 -48 -83 -91 -151 -94 -151
-3 0 -31 7 -61 15 -73 20 -212 19 -281 -1 -145 -43 -277 -150 -337 -274 -34
-69 -62 -179 -62 -245 0 -132 61 -275 159 -375 106 -108 230 -160 380 -160
157 0 266 45 378 156 79 77 137 179 149 260 l6 44 174 0 c101 0 183 4 196 11
16 7 84 114 212 335 104 179 190 324 191 322 7 -8 95 -160 95 -165 0 -3 -25
-32 -55 -65 -275 -296 -139 -767 254 -882 71 -21 211 -21 282 0 137 41 271
146 332 261 34 65 67 190 67 258 0 68 -33 193 -67 258 -61 115 -195 220 -332
261 -70 20 -205 21 -283 0 -34 -8 -64 -12 -69 -7 -4 4 -39 63 -78 130 l-71
121 0 156 c0 149 -1 156 -24 183 l-24 28 -169 2 c-126 2 -176 -1 -199 -11z
m-376 -786 c72 -124 134 -233 137 -242 7 -16 -2 -18 -93 -18 l-100 0 -6 44
c-11 68 -68 176 -130 243 -31 33 -56 64 -56 67 0 4 21 42 46 86 41 71 48 78
59 63 6 -10 71 -119 143 -243z m-499 44 c17 -4 31 -11 31 -15 0 -5 -43 -83
-95 -173 -105 -180 -113 -210 -69 -245 25 -20 40 -21 225 -21 153 0 199 -3
199 -12 0 -7 -13 -41 -30 -76 -37 -78 -107 -150 -185 -188 -54 -26 -70 -29
-160 -29 -91 0 -106 3 -165 31 -158 74 -250 245 -221 408 27 151 133 271 281
317 31 9 147 11 189 3z m1815 -30 c154 -76 245 -247 217 -408 -23 -129 -103
-234 -221 -290 -59 -28 -74 -31 -165 -31 -90 0 -106 3 -160 29 -79 39 -149
110 -188 194 -29 60 -32 76 -32 157 0 77 4 99 27 148 27 58 83 137 97 137 4 0
50 -73 102 -162 51 -90 102 -171 111 -180 24 -24 59 -23 92 3 44 35 36 65 -69
245 -52 89 -95 167 -95 173 0 15 36 20 135 17 77 -2 99 -7 149 -32z m-1605
-103 c32 -40 81 -136 81 -158 0 -10 -31 -13 -120 -13 -66 0 -120 3 -120 7 0
13 112 203 120 203 5 0 22 -17 39 -39z"/>
</g>
</svg>
